<svg width="120" height="110" viewBox="0 0 120 110" fill="none" xmlns="http://www.w3.org/2000/svg">
<path fill-rule="evenodd" clip-rule="evenodd" d="M74.2667 4.37818C77.2669 4.68727 80.2289 4.45612 82.6634 6.24421C86.5245 9.08008 91.5362 12.072 91.2734 16.8692C90.9884 22.0723 86.4755 26.6225 81.4717 27.9983C77.0761 29.2069 73.5592 24.9887 69.5313 22.8472C65.8442 20.8868 60.8655 20.321 59.5518 16.3438C58.157 12.1213 59.949 7.05798 63.3914 4.25875C66.3559 1.84812 70.4724 3.98728 74.2667 4.37818Z" fill="#F43F5E"/>
<path fill-rule="evenodd" clip-rule="evenodd" d="M98.9086 20.0615C105.184 19.1709 112.412 21.5834 114.364 27.6406C116.311 33.6838 111.259 38.9561 106.242 42.8236C100.591 47.181 92.9683 53.0063 87.6712 48.2206C82.6873 43.718 90.3263 36.9473 92.8203 30.6977C94.4951 26.5009 94.4515 20.694 98.9086 20.0615Z" fill="#F43F5E"/>
<path fill-rule="evenodd" clip-rule="evenodd" d="M32.5481 29.113C37.3901 29.5946 41.7675 32.0156 43.4434 36.6039C45.3488 41.8207 45.0653 48.0164 40.6987 51.4282C35.9293 55.1547 29.4278 54.7742 24.3029 51.5589C17.508 47.2959 9.32802 41.0362 12.1013 33.4866C14.7681 26.2266 24.8815 28.3505 32.5481 29.113Z" fill="#F43F5E"/>
<path fill-rule="evenodd" clip-rule="evenodd" d="M6.87903 53.7891C13.4848 53.1817 16.8447 60.9599 18.8155 67.3221C20.6831 73.3513 21.7023 81.0074 16.3215 84.2721C11.4442 87.2313 6.71621 81.1024 2.56533 77.1815C0.296531 75.0384 -0.376751 72.1108 0.19048 69.0348C1.30375 62.9978 0.792001 54.3489 6.87903 53.7891Z" fill="#F43F5E"/>
<path fill-rule="evenodd" clip-rule="evenodd" d="M47.2546 88.1555C55.1106 87.2446 66.4217 84.0259 68.4195 91.7117C70.3902 99.2931 58.1726 100.43 51.5002 104.489C47.443 106.957 43.5457 111.838 39.5447 109.278C35.1673 106.478 35.4002 100.227 37.1866 95.3333C38.7528 91.0424 42.7348 88.6796 47.2546 88.1555Z" fill="#F43F5E"/>
<path fill-rule="evenodd" clip-rule="evenodd" d="M44.8611 0.00552914C50.6055 0.242631 50.0577 8.55858 51.6847 14.0974C53.0805 18.8494 56.9788 24.6497 52.9324 27.4831C48.9327 30.2839 44.8775 24.6171 41.1219 21.4938C38.4336 19.2581 35.4608 16.906 36.0617 13.4526C37.0782 7.61092 38.9622 -0.23795 44.8611 0.00552914Z" fill="#F43F5E"/>
<path fill-rule="evenodd" clip-rule="evenodd" d="M67.9024 28.941C70.7949 29.2287 73.2773 30.493 74.6292 33.0776C77.9488 39.4246 85.3348 47.2051 79.8629 51.8086C74.2431 56.5364 67.1256 48.8449 61.5027 44.1207C57.451 40.7167 53.2174 36.0382 55.2772 31.1526C57.1189 26.7841 63.2025 28.4735 67.9024 28.941Z" fill="#F43F5E"/>
<path fill-rule="evenodd" clip-rule="evenodd" d="M110.102 57.0887C114.159 57.6706 116.561 61.1191 117.966 64.9859C119.618 69.531 121.672 75.3164 117.741 78.1128C113.864 80.8705 109.64 76.2848 105.591 73.7898C99.2376 69.8747 87.9557 68.1871 89.9076 60.9615C91.8917 53.6166 102.602 56.0129 110.102 57.0887Z" fill="#F43F5E"/>
<path fill-rule="evenodd" clip-rule="evenodd" d="M29.795 60.2686C37.4049 59.9066 37.1225 71.5262 38.6832 79.0162C39.5806 83.3228 39.5235 87.8934 36.1313 90.677C32.0502 94.0259 26.015 96.1267 21.9776 92.7248C18.3163 89.6398 22.0442 84.4198 23.168 79.7542C24.9444 72.3786 22.2488 60.6275 29.795 60.2686Z" fill="#F43F5E"/>
<path fill-rule="evenodd" clip-rule="evenodd" d="M82.2444 66.7951C90.0867 65.7471 95.4373 73.8977 98.035 81.4038C100.858 89.5622 102.389 99.7151 95.3575 104.686C88.4979 109.536 79.2094 104.884 73.3481 98.8566C69.5952 94.9974 74.1862 89.5947 75.6281 84.398C77.4815 77.7185 75.4015 67.7095 82.2444 66.7951Z" fill="#F43F5E"/>
<path fill-rule="evenodd" clip-rule="evenodd" d="M54.8512 53.9956C60.4582 53.6599 67.8112 52.8967 69.4831 58.283C71.1368 63.6105 64.1921 66.4813 59.779 69.8712C54.7263 73.7523 49.6154 81.1589 44.3306 77.6034C38.8908 73.9437 42.08 65.7658 44.7549 59.7633C46.5037 55.839 50.5784 54.2514 54.8512 53.9956Z" fill="#F43F5E"/>
</svg>
