<svg width="24" height="24" viewBox="0 0 24 24" fill="none" xmlns="http://www.w3.org/2000/svg">
              <circle cx="12" cy="12" r="12" fill="#F43F5E" />
              <path d="M9.92683 23.845V15.5218H7V12.1099H9.92683L9.84537 9.58189C9.84537 8.14596 10.2582 7.07101 11.0839 6.35701C11.9176 5.64302 12.8267 5.04231 14.0732 5.04231C14.6448 5.04231 15.556 4.94711 16.0244 5.04231C16.5008 5.12958 16.7777 5.22255 17 5.28602V8.2372C16.8571 8.19753 16.1554 8.1777 15.7643 8.2372C15.5579 8.19753 15.2085 8.2372 14.9783 8.2372C14.4384 8.2372 14.2955 8.4441 14.0732 8.69796C13.8588 8.94389 13.8293 9.2206 13.8293 9.6728L13.835 12.1099H17L16.5122 15.5218H13.835V23.845C12.254 24.038 11.4037 24.0649 9.92683 23.845Z" fill="#0C0A09" />
            </svg>