<svg width="75" height="24" viewBox="0 0 75 24" fill="none" xmlns="http://www.w3.org/2000/svg">
    <path d="M75 14.5255C75 15.7246 74.7383 16.7887 74.2149 17.718C73.6915 18.6323 72.9812 19.3517 72.084 19.8763C71.1868 20.4009 70.1774 20.6632 69.0559 20.6632C67.9343 20.6632 66.9249 20.4009 66.0277 19.8763C65.1305 19.3517 64.4127 18.6323 63.8743 17.718C63.351 16.7887 63.0893 15.7246 63.0893 14.5255C63.0893 13.3115 63.351 12.2473 63.8743 11.3331C64.4127 10.4038 65.1305 9.67687 66.0277 9.15229C66.9249 8.61272 67.9343 8.34293 69.0559 8.34293C70.1774 8.34293 71.1868 8.61272 72.084 9.15229C72.9812 9.67687 73.6915 10.4038 74.2149 11.3331C74.7383 12.2473 75 13.3115 75 14.5255ZM72.7569 14.5255C72.7569 13.7012 72.5924 12.9892 72.2635 12.3897C71.9345 11.7752 71.4859 11.2956 70.9176 10.9509C70.3643 10.5911 69.7437 10.4113 69.0559 10.4113C68.368 10.4113 67.7399 10.5911 67.1717 10.9509C66.6034 11.2956 66.1548 11.7752 65.8258 12.3897C65.4968 12.9892 65.3323 13.7012 65.3323 14.5255C65.3323 15.3199 65.4968 16.0243 65.8258 16.6389C66.1548 17.2534 66.6034 17.733 67.1717 18.0777C67.7399 18.4224 68.368 18.5948 69.0559 18.5948C69.7437 18.5948 70.3643 18.4224 70.9176 18.0777C71.4859 17.733 71.9345 17.2534 72.2635 16.6389C72.5924 16.0243 72.7569 15.3199 72.7569 14.5255Z" fill="#0C0A09"/>
    <path d="M54.9949 8.7476H60.2661C60.5652 8.7476 60.8119 8.85252 61.0063 9.06236C61.2157 9.2572 61.3204 9.5045 61.3204 9.80427C61.3204 10.089 61.2157 10.3289 61.0063 10.5237C60.8119 10.7185 60.5652 10.816 60.2661 10.816H54.9949C54.6958 10.816 54.4416 10.7185 54.2323 10.5237C54.0379 10.3139 53.9407 10.0666 53.9407 9.78178C53.9407 9.48202 54.0379 9.23472 54.2323 9.03987C54.4416 8.84503 54.6958 8.7476 54.9949 8.7476ZM57.3501 5.82492C57.6791 5.82492 57.9483 5.93733 58.1576 6.16215C58.367 6.37199 58.4717 6.64177 58.4717 6.97151V17.4032C58.4717 17.673 58.5165 17.8904 58.6063 18.0552C58.696 18.2201 58.8156 18.3325 58.9651 18.3925C59.1296 18.4524 59.2941 18.4824 59.4586 18.4824C59.6231 18.4824 59.7652 18.4524 59.8848 18.3925C60.0194 18.3325 60.1764 18.3025 60.3559 18.3025C60.5353 18.3025 60.6998 18.385 60.8493 18.5498C60.9989 18.7147 61.0736 18.9395 61.0736 19.2243C61.0736 19.584 60.8792 19.8763 60.4904 20.1011C60.1016 20.3259 59.6829 20.4383 59.2343 20.4383C58.9801 20.4383 58.681 20.4159 58.3371 20.3709C57.9931 20.3259 57.6567 20.2135 57.3277 20.0337C57.0137 19.8538 56.752 19.569 56.5426 19.1793C56.3333 18.7747 56.2286 18.2126 56.2286 17.4932V6.97151C56.2286 6.64177 56.3333 6.37199 56.5426 6.16215C56.7669 5.93733 57.0361 5.82492 57.3501 5.82492Z" fill="#0C0A09"/>
    <path d="M52.613 14.5255C52.613 15.7246 52.3513 16.7887 51.828 17.718C51.3046 18.6323 50.5943 19.3517 49.697 19.8763C48.7998 20.4009 47.7904 20.6632 46.6689 20.6632C45.5473 20.6632 44.538 20.4009 43.6407 19.8763C42.7435 19.3517 42.0257 18.6323 41.4874 17.718C40.964 16.7887 40.7023 15.7246 40.7023 14.5255C40.7023 13.3115 40.964 12.2473 41.4874 11.3331C42.0257 10.4038 42.7435 9.67687 43.6407 9.15229C44.538 8.61272 45.5473 8.34293 46.6689 8.34293C47.7904 8.34293 48.7998 8.61272 49.697 9.15229C50.5943 9.67687 51.3046 10.4038 51.828 11.3331C52.3513 12.2473 52.613 13.3115 52.613 14.5255ZM50.37 14.5255C50.37 13.7012 50.2055 12.9892 49.8765 12.3897C49.5475 11.7752 49.0989 11.2956 48.5306 10.9509C47.9773 10.5911 47.3568 10.4113 46.6689 10.4113C45.981 10.4113 45.3529 10.5911 44.7847 10.9509C44.2164 11.2956 43.7678 11.7752 43.4388 12.3897C43.1099 12.9892 42.9454 13.7012 42.9454 14.5255C42.9454 15.3199 43.1099 16.0243 43.4388 16.6389C43.7678 17.2534 44.2164 17.733 44.7847 18.0777C45.3529 18.4224 45.981 18.5948 46.6689 18.5948C47.3568 18.5948 47.9773 18.4224 48.5306 18.0777C49.0989 17.733 49.5475 17.2534 49.8765 16.6389C50.2055 16.0243 50.37 15.3199 50.37 14.5255Z" fill="#0C0A09"/>
    <path d="M34.2405 8.41037C35.2723 8.41037 36.0723 8.6352 36.6406 9.08484C37.2088 9.5195 37.6051 10.1115 37.8294 10.8609C38.0687 11.6103 38.1883 12.4347 38.1883 13.334V19.2917C38.1883 19.6215 38.0761 19.8988 37.8518 20.1236C37.6425 20.3334 37.3808 20.4383 37.0668 20.4383C36.7378 20.4383 36.4686 20.3334 36.2592 20.1236C36.0499 19.8988 35.9452 19.6215 35.9452 19.2917V13.334C35.9452 12.8094 35.8704 12.3298 35.7209 11.8951C35.5863 11.4605 35.3396 11.1157 34.9807 10.8609C34.6368 10.6061 34.1508 10.4787 33.5227 10.4787C32.9395 10.4787 32.4161 10.6061 31.9525 10.8609C31.5039 11.1157 31.1525 11.4605 30.8983 11.8951C30.659 12.3298 30.5394 12.8094 30.5394 13.334V19.2917C30.5394 19.6215 30.4272 19.8988 30.2029 20.1236C29.9936 20.3334 29.7319 20.4383 29.4179 20.4383C29.0889 20.4383 28.8197 20.3334 28.6103 20.1236C28.401 19.8988 28.2963 19.6215 28.2963 19.2917V4.94812C28.2963 4.61838 28.401 4.34859 28.6103 4.13876C28.8197 3.91394 29.0889 3.80153 29.4179 3.80153C29.7319 3.80153 29.9936 3.91394 30.2029 4.13876C30.4272 4.34859 30.5394 4.61838 30.5394 4.94812V11.0858L30.1356 11.3106C30.2403 10.9808 30.4123 10.6436 30.6516 10.2989C30.9058 9.95415 31.2123 9.6394 31.5712 9.35463C31.9451 9.06985 32.3563 8.84503 32.8049 8.68016C33.2535 8.5003 33.732 8.41037 34.2405 8.41037Z" fill="#0C0A09"/>
    <path d="M21.3969 4.70082C22.1895 4.70082 22.9222 4.91814 23.5951 5.3528C24.2681 5.77247 24.8064 6.34951 25.2102 7.08393C25.6139 7.81834 25.8158 8.64269 25.8158 9.55696C25.8158 10.4712 25.6139 11.3031 25.2102 12.0525C24.8064 12.7869 24.2681 13.3789 23.5951 13.8286C22.9222 14.2632 22.1895 14.4806 21.3969 14.4806H17.0678L17.2472 14.1208V19.2917C17.2472 19.6215 17.1425 19.8988 16.9332 20.1236C16.7388 20.3334 16.4771 20.4383 16.1481 20.4383C15.8341 20.4383 15.5724 20.3334 15.363 20.1236C15.1686 19.8988 15.0714 19.6215 15.0714 19.2917V5.84741C15.0714 5.51767 15.1836 5.24788 15.4079 5.03805C15.6322 4.81323 15.9014 4.70082 16.2154 4.70082H21.3969ZM21.3969 12.3223C21.7857 12.3223 22.1371 12.1949 22.4512 11.9401C22.7802 11.6853 23.0418 11.348 23.2362 10.9284C23.4456 10.5087 23.5503 10.0516 23.5503 9.55696C23.5503 9.06236 23.4456 8.61271 23.2362 8.20803C23.0418 7.80336 22.7802 7.48111 22.4512 7.2413C22.1371 6.9865 21.7857 6.8591 21.3969 6.8591H17.0229L17.2472 6.52187V12.6145L17.0453 12.3223H21.3969Z" fill="#0C0A09"/>
    <path d="M3.7797 0.722604C4.17787 0.323521 4.82343 0.323521 5.2216 0.722604L10.9892 6.50344C11.3874 6.90252 11.3874 7.54956 10.9892 7.94865C10.5911 8.34773 9.94549 8.34773 9.54732 7.94865L3.7797 2.16781C3.38153 1.76873 3.38153 1.12169 3.7797 0.722604Z" fill="#F43F5E"/>
    <path d="M0 12.263C0 11.6986 0.456482 11.2411 1.01958 11.2411H9.17623C9.73933 11.2411 10.1958 11.6986 10.1958 12.263C10.1958 12.8274 9.73933 13.2849 9.17623 13.2849H1.01958C0.456482 13.2849 0 12.8274 0 12.263Z" fill="#F43F5E"/>
    <path d="M3.7797 23.2774C3.38152 22.8783 3.38152 22.2313 3.7797 21.8322L9.54732 16.0514C9.94549 15.6523 10.591 15.6523 10.9892 16.0514C11.3874 16.4504 11.3874 17.0975 10.9892 17.4966L5.2216 23.2774C4.82343 23.6765 4.17787 23.6765 3.7797 23.2774Z" fill="#F43F5E"/>
</svg>
