<svg width="24" height="24" viewBox="0 0 24 24" fill="none" xmlns="http://www.w3.org/2000/svg">
              <circle cx="12" cy="12" r="12" fill="#F43F5E" />
              <path fill-rule="evenodd" clip-rule="evenodd" d="M5.5641 10.2829C5.52199 10.5155 5.5 10.7552 5.5 11V13C5.5 15.2091 7.29086 17 9.5 17H14.5C16.7091 17 18.5 15.2091 18.5 13V11C18.5 10.8356 18.4901 10.6734 18.4708 10.5142C17.4583 11.0057 16.5526 11.3866 15.7007 11.7449C14.4034 12.2905 13.2306 12.7837 11.9947 13.5354L11.9227 13.4933V13.5017C10.4099 12.5816 9.03626 11.9324 7.39202 11.1554L7.39201 11.1553L7.39199 11.1553C6.82105 10.8855 6.21747 10.6002 5.5641 10.2829ZM5.92646 9.20091L11.919 12H12.0773L18.0728 9.19952C17.414 7.89475 16.0615 7 14.5 7H9.5C7.93794 7 6.58502 7.89538 5.92646 9.20091Z" fill="#0C0A09" />
            </svg>