<svg width="24" height="24" viewBox="0 0 24 24" fill="none" xmlns="http://www.w3.org/2000/svg">
              <circle cx="12" cy="12" r="12" fill="#F43F5E" />
              <path d="M5.46823 10.0743C5.03142 9.25475 4.91147 8.64336 5.06166 7.89168C5.23066 7.04582 5.77793 6.33557 6.38068 5.71854C6.72633 5.3647 7.13614 4.86433 7.59704 5.0439C7.67588 5.07462 7.76038 5.12175 7.8557 5.18618C8.20625 5.4241 8.4157 5.59099 8.81068 5.9194C9.42018 6.54471 9.75096 6.90469 10.2432 7.63024C10.3203 7.7445 10.3797 7.84374 10.4167 7.93695C10.5964 8.39055 10.0319 8.70064 9.68971 9.04843C9.38898 9.35409 9.13933 9.79299 9.19406 10.2183C9.20722 10.3206 9.23713 10.4314 9.28817 10.5631C9.43693 10.9113 9.53999 11.1235 9.76567 11.5407C10.2959 12.4475 10.4204 12.9942 11.6756 13.7404C12.392 14.2292 12.8695 14.4401 13.5856 14.9624C13.8264 15.138 13.9154 15.0877 14.0631 14.9624C14.5586 14.4616 14.826 14.1632 15.4956 13.7404C16.104 13.4461 16.7153 13.953 17.2301 14.3909C17.8429 14.912 18.3146 15.373 18.838 16.1844C19.0668 16.6617 19.0408 16.9292 18.838 17.4065C18.1929 18.6496 16.7013 19.0923 15.3067 18.9628C15.0717 18.941 14.8217 18.9104 14.5406 18.8729C13.9546 18.7429 13.6464 18.6234 13.1081 18.3841C11.9392 17.7068 11.3129 17.2767 10.2432 16.4288C9.15157 15.5823 8.52781 14.9782 7.3782 13.496C6.44362 12.295 6.09458 11.5004 5.47671 10.0936L5.46823 10.0743Z" fill="#0C0A09" />
            </svg>